<svg width="32" height="32" viewBox="0 0 32 32" fill="none" xmlns="http://www.w3.org/2000/svg">
<g clip-path="url(#clip0_351_3898)">
<path d="M23.9997 7.99935H21.333C21.333 5.05268 18.9463 2.66602 15.9997 2.66602C13.053 2.66602 10.6663 5.05268 10.6663 7.99935H7.99967C6.53301 7.99935 5.33301 9.19935 5.33301 10.666V26.666C5.33301 28.1327 6.53301 29.3327 7.99967 29.3327H23.9997C25.4663 29.3327 26.6663 28.1327 26.6663 26.666V10.666C26.6663 9.19935 25.4663 7.99935 23.9997 7.99935ZM15.9997 5.33268C17.4663 5.33268 18.6663 6.53268 18.6663 7.99935H13.333C13.333 6.53268 14.533 5.33268 15.9997 5.33268ZM23.9997 26.666H7.99967V10.666H10.6663V13.3327C10.6663 14.066 11.2663 14.666 11.9997 14.666C12.733 14.666 13.333 14.066 13.333 13.3327V10.666H18.6663V13.3327C18.6663 14.066 19.2663 14.666 19.9997 14.666C20.733 14.666 21.333 14.066 21.333 13.3327V10.666H23.9997V26.666Z" fill="#002F52"/>
</g>
<defs>
<clipPath id="clip0_351_3898">
<rect width="32" height="32" fill="white"/>
</clipPath>
</defs>
</svg>
